
<svg xmlns="http://www.w3.org/2000/svg" xml:space="preserve">
 <symbol id="icon-0" viewBox="0 0 500 500">
  <path class="fil1" d="M151 72c4,-1 40,-3 46,-3 0,4 -1,4 -2,6l-8 12c0,1 0,1 -1,2l-32 49c-1,3 -1,3 -3,4 -1,-1 -1,-2 -1,-2l1 -68zm-55 368l-28 -1c1,5 3,3 7,8 3,6 0,9 0,12 8,1 102,1 120,0 4,0 14,1 17,0 1,-5 -2,-4 1,-9 3,-5 5,-6 5,-8 -14,-1 -64,5 -75,1 -4,-10 5,-225 5,-249l1 -28c0,-4 -1,-6 2,-8 -1,-2 -1,-1 0,-3l27 -33c4,-5 10,-13 12,-15 5,-4 15,-17 19,-19 3,-2 0,1 4,-3 2,-3 14,-11 17,-13 7,-3 7,-2 10,-4 1,-1 0,-2 3,-2 6,-1 29,-1 36,-1 12,-1 24,-2 35,-2 9,0 33,-1 36,0 3,1 2,9 2,13 0,7 0,30 0,36l8 0c0,-15 0,-30 -1,-47 1,-4 2,-1 5,-3 1,-3 0,-7 0,-11 0,-4 1,-8 1,-11 -6,0 -8,1 -13,2 -4,1 -8,1 -13,1l-82 6c-4,1 -5,2 -12,2l-21 1c-4,0 -1,1 -5,2l-41 2c-5,1 -23,3 -28,1l0 -8c-7,0 -12,2 -18,2 -5,1 -13,1 -18,1 -1,6 3,5 0,10l-6 0 -5 12c4,1 8,0 11,0 5,0 4,1 4,11 1,4 1,6 2,11 0,17 2,26 2,44 0,7 1,16 1,23 1,7 0,16 1,23 0,8 1,16 1,23 0,16 0,31 0,47 1,47 2,92 1,140l-1 35c0,4 1,8 -1,11 -4,2 -22,-2 -28,-2z"/>
 </symbol>
 <symbol id="icon-1" viewBox="0 0 500 500">
  <path class="fil1" d="M386 167c-2,8 -4,14 -12,19 -3,2 -1,1 -5,2 -2,1 -3,2 -6,2 -9,1 -18,1 -25,-3 -9,-6 -12,-17 -12,-27 0,-4 1,-3 2,-6 1,-8 5,-14 11,-19 7,-6 14,-6 24,-5 6,0 15,5 18,11 1,1 1,2 1,3 4,7 5,15 4,23zm-36 -12c1,-3 2,-4 1,-7 -1,0 -3,-4 -4,-4 -1,0 -1,0 -2,1 0,0 -1,1 -1,1 -1,1 -2,3 -1,5 0,3 -1,-1 0,1 2,3 5,3 7,3zm17 0c1,-1 2,-2 2,-3 0,-3 -3,-7 -6,-8 -5,3 -6,11 4,11zm-216 -83c4,-1 40,-3 46,-3 0,4 -1,4 -2,6l-8 12c0,1 0,1 -1,2l-32 49c-1,3 -1,3 -3,4 -1,-1 -1,-2 -1,-2l1 -68zm-55 368l-28 -1c1,5 3,3 7,8 3,6 0,9 0,12 8,1 102,1 120,0 4,0 14,1 17,0 1,-5 -2,-4 1,-9 3,-5 5,-6 5,-8 -14,-1 -64,5 -75,1 -4,-10 5,-225 5,-249l1 -28c0,-4 -1,-6 2,-8 -1,-2 -1,-1 0,-3l27 -33c4,-5 10,-13 12,-15 5,-4 15,-17 19,-19 3,-2 0,1 4,-3 2,-3 14,-11 17,-13 7,-3 7,-2 10,-4 1,-1 0,-2 3,-2 6,-1 29,-1 36,-1 12,-1 24,-2 35,-2 9,0 33,-1 36,0 3,1 2,9 2,13 0,7 0,30 0,36 0,1 0,2 -1,3 -1,6 -3,2 -14,8 -6,4 -15,13 -17,19l-3 9c-1,4 -1,13 -1,18 1,4 3,11 5,14 1,2 2,3 4,5 8,13 21,12 24,14l12 -1c7,-3 15,0 27,-12 7,-8 9,-19 9,-30 0,-9 -4,-22 -10,-28 -4,-4 -6,-6 -12,-8 -8,-4 -6,-2 -14,-5l-2 -53c1,-4 2,-1 5,-3 1,-3 0,-7 0,-11 0,-4 1,-8 1,-11 -6,0 -8,1 -13,2 -4,1 -8,1 -13,1l-82 6c-4,1 -5,2 -12,2l-21 1c-4,0 -1,1 -5,2l-41 2c-5,1 -23,3 -28,1l0 -8c-7,0 -12,2 -18,2 -5,1 -13,1 -18,1 -1,6 3,5 0,10l-6 0 -5 12c4,1 8,0 11,0 5,0 4,1 4,11 1,4 1,6 2,11 0,17 2,26 2,44 0,7 1,16 1,23 1,7 0,16 1,23 0,8 1,16 1,23 0,16 0,31 0,47 1,47 2,92 1,140l-1 35c0,4 1,8 -1,11 -4,2 -22,-2 -28,-2z"/>
 </symbol>
 <symbol id="icon-2" viewBox="0 0 500 500">
  <path class="fil1" d="M386 167c-2,8 -4,14 -12,19 -3,2 -1,1 -5,2 -2,1 -3,2 -6,2 -9,1 -18,1 -25,-3 -9,-6 -12,-17 -12,-27 0,-4 1,-3 2,-6 1,-8 5,-14 11,-19 7,-6 14,-6 24,-5 6,0 15,5 18,11 1,1 1,2 1,3 4,7 5,15 4,23zm-36 -12c1,-3 2,-4 1,-7 -1,0 -3,-4 -4,-4 -1,0 -1,0 -2,1 0,0 -1,1 -1,1 -1,1 -2,3 -1,5 0,3 -1,-1 0,1 2,3 5,3 7,3zm17 0c1,-1 1,-2 2,-3 0,-3 -3,-7 -6,-8 -5,3 -6,11 4,11zm-216 -83c4,-1 40,-3 46,-3 0,4 -1,4 -2,6l-8 12c0,1 0,1 -1,2l-32 49c-1,3 -1,3 -3,4 -1,-1 -1,-2 -1,-2l1 -68zm-55 368l-28 -1c1,5 3,3 7,8 3,6 0,9 0,12 8,1 102,1 120,0 4,0 14,1 17,0 1,-5 -2,-4 1,-9 3,-5 5,-6 5,-8 -14,-1 -64,5 -75,1 -4,-10 5,-225 5,-249l1 -28c0,-4 -1,-6 2,-8 -1,-2 -1,-1 0,-3l27 -33c4,-5 10,-13 12,-15 5,-4 15,-17 19,-19 3,-2 0,1 4,-3 2,-3 14,-11 17,-13 7,-3 7,-2 10,-4 1,-1 0,-2 3,-2 6,-1 29,-1 36,-1 12,-1 24,-2 35,-2 9,0 33,-1 36,0 3,1 2,9 2,13 0,7 0,30 0,36 0,1 0,2 -1,3 -1,6 -3,2 -14,8 -6,4 -15,13 -17,19l-3 9c-1,4 -1,13 -1,18 1,4 3,11 5,14 1,2 2,3 4,5 8,13 21,12 24,14l2 17c2,11 2,10 2,23 0,10 -1,20 -2,30 0,5 1,11 -1,15l5 8c3,-1 12,1 14,2l7 -6c-1,-3 -2,-2 -2,-3 -1,-2 0,-1 0,-2l-1 -3c-2,-4 -1,-1 -2,-4 -1,-4 -2,-1 -2,-8 0,-4 0,-8 0,-12 0,-3 0,-7 0,-10 0,-3 -1,-6 -2,-10 0,-3 1,-8 0,-11 -1,-3 -2,-4 -2,-9l-4 -18c7,-3 15,0 27,-12 7,-8 9,-19 9,-30 0,-9 -4,-22 -10,-28 -4,-4 -6,-6 -12,-8 -8,-4 -6,-2 -14,-5l-2 -53c1,-4 2,-1 5,-3 1,-3 0,-7 0,-11 0,-4 1,-8 1,-11 -6,0 -8,1 -13,2 -4,1 -8,1 -13,1l-82 6c-4,1 -5,2 -12,2l-21 1c-4,0 -1,1 -5,2l-41 2c-5,1 -23,3 -28,1l0 -8c-7,0 -12,2 -18,2 -5,1 -13,1 -18,1 -1,6 3,5 0,10l-6 0 -5 12c4,1 8,0 11,0 5,0 4,1 4,11 1,4 1,6 2,11 0,17 2,26 2,44 0,7 1,16 1,23 1,7 0,16 1,23 0,8 1,16 1,23 0,16 0,31 0,47 1,47 2,92 1,140l-1 35c0,4 1,8 -1,11 -4,2 -22,-2 -28,-2z"/>
 </symbol>
 <symbol id="icon-3" viewBox="0 0 500 500">
  <path class="fil1" d="M386 167c-2,8 -4,14 -12,19 -3,2 -1,1 -5,2 -2,1 -3,2 -6,2 -9,1 -18,1 -25,-3 -9,-6 -12,-17 -12,-27 0,-4 1,-3 2,-6 1,-8 5,-14 11,-19 7,-6 14,-6 24,-5 6,0 15,5 18,11 1,1 1,2 1,3 4,7 5,15 4,23zm-36 -12c1,-3 2,-4 1,-7 -1,0 -3,-4 -4,-4 -1,0 -1,0 -2,1 0,0 -1,1 -1,1 -1,1 -2,3 -1,5 0,3 -1,-1 0,1 2,3 5,3 7,3zm17 0c1,-1 1,-2 2,-3 0,-3 -3,-7 -6,-8 -5,3 -6,11 4,11zm-216 -83c4,-1 40,-3 46,-3 0,4 -1,4 -2,6l-8 12c0,1 0,1 -1,2l-32 49c-1,3 -1,3 -3,4 -1,-1 -1,-2 -1,-2l1 -68zm-55 368l-28 -1c1,5 3,3 7,8 3,6 0,9 0,12 8,1 102,1 120,0 4,0 14,1 17,0 1,-5 -2,-4 1,-9 3,-5 5,-6 5,-8 -14,-1 -64,5 -75,1 -4,-10 5,-225 5,-249l1 -28c0,-4 -1,-6 2,-8 -1,-2 -1,-1 0,-3l27 -33c4,-5 10,-13 12,-15 5,-4 15,-17 19,-19 3,-2 0,1 4,-3 2,-3 14,-11 17,-13 7,-3 7,-2 10,-4 1,-1 0,-2 3,-2 6,-1 29,-1 36,-1 12,-1 24,-2 35,-2 9,0 33,-1 36,0 3,1 2,9 2,13 0,7 0,30 0,36 0,1 0,2 -1,3 -1,6 -3,2 -14,8 -6,4 -15,13 -17,19l-3 9c-1,4 -1,13 -1,18 1,4 3,11 5,14 1,2 2,3 4,5 8,13 21,12 24,14 0,4 -3,4 -7,6l-10 5c-1,1 -1,1 -2,1 -8,3 -14,6 -23,9l-15 6c-3,1 -3,1 -6,2 -2,1 -3,0 -5,1 -5,2 -10,3 -10,5 0,2 0,1 2,2 1,0 1,0 3,1 7,6 0,6 13,1 1,0 2,-1 3,-1 6,-3 4,-1 7,-3l31 -13 16 -10c1,-1 2,-2 3,-2 3,0 2,3 2,7 2,11 2,10 2,23 0,10 -1,20 -2,30 0,5 1,11 -1,15l5 8c3,-1 12,1 14,2l7 -6c-1,-3 -2,-2 -2,-3 -1,-2 0,-1 0,-2l-1 -3c-2,-4 -1,-1 -2,-4 -1,-4 -2,-1 -2,-8 0,-4 0,-8 0,-12 0,-3 0,-7 0,-10 0,-3 -1,-6 -2,-10 0,-3 1,-8 0,-11 -1,-3 -2,-4 -2,-9l-2 -12c-3,-5 -3,-3 -2,-6 7,-3 15,0 27,-12 7,-8 9,-19 9,-30 0,-9 -4,-22 -10,-28 -4,-4 -6,-6 -12,-8 -8,-4 -6,-2 -14,-5l-2 -53c1,-4 2,-1 5,-3 1,-3 0,-7 0,-11 0,-4 1,-8 1,-11 -6,0 -8,1 -13,2 -4,1 -8,1 -13,1l-82 6c-4,1 -5,2 -12,2l-21 1c-4,0 -1,1 -5,2l-41 2c-5,1 -23,3 -28,1l0 -8c-7,0 -12,2 -18,2 -5,1 -13,1 -18,1 -1,6 3,5 0,10l-6 0 -5 12c4,1 8,0 11,0 5,0 4,1 4,11 1,4 1,6 2,11 0,16 2,26 2,44 0,7 1,16 1,23 1,7 0,16 1,23 0,8 1,16 1,23 0,16 0,31 0,47 1,47 2,92 1,140l-1 35c0,4 1,8 -1,11 -4,2 -22,-2 -28,-2z"/>
 </symbol>
 <symbol id="icon-4" viewBox="0 0 500 500">
  <path class="fil1" d="M386 167c-2,8 -4,14 -12,19 -3,2 -1,1 -5,2 -2,1 -3,2 -6,2 -9,1 -18,1 -25,-3 -9,-6 -12,-17 -12,-27 0,-4 1,-3 2,-6 1,-8 5,-14 11,-19 7,-6 14,-6 24,-5 6,0 15,5 18,11 1,1 1,2 1,3 4,7 5,15 4,23zm-36 -12c1,-3 2,-4 1,-7 -1,0 -3,-4 -4,-4 -1,0 -1,0 -2,1 0,0 -1,1 -1,1 -1,1 -2,3 -1,5 0,3 -1,-1 0,1 2,3 5,3 7,3zm17 0c1,-1 1,-2 2,-3 0,-3 -3,-7 -6,-8 -5,3 -6,11 4,11zm-216 -83c4,-1 40,-3 46,-3 0,4 -1,4 -2,6l-8 12c0,1 0,1 -1,2l-32 49c-1,3 -1,3 -3,4 -1,-1 -1,-2 -1,-2l1 -68zm-55 368l-28 -1c1,5 3,3 7,8 3,6 0,9 0,12 8,1 102,0 120,0 4,0 14,1 17,0 1,-5 -2,-4 1,-9 3,-5 5,-6 5,-8 -14,-1 -64,5 -75,1 -4,-10 5,-225 5,-249l1 -28c0,-4 -1,-6 2,-8 -1,-2 -1,-1 0,-3l27 -33c4,-5 10,-13 12,-15 5,-4 15,-17 19,-19 3,-2 0,1 4,-3 2,-3 14,-11 17,-13 7,-3 7,-2 10,-4 1,-1 0,-2 3,-2 6,-1 29,-1 36,-1 12,-1 24,-2 35,-2 9,0 33,-1 36,0 3,1 2,9 2,13 0,7 0,30 0,36 0,1 0,2 -1,3 -1,6 -3,2 -14,8 -6,4 -15,13 -17,19l-3 9c-1,4 -1,13 -1,18 1,4 3,11 5,14 1,2 2,3 4,5 8,13 21,12 24,14 0,4 -3,4 -7,6l-10 5c-1,1 -1,1 -2,1 -8,3 -14,6 -23,9l-15 6c-3,1 -3,1 -6,2 -2,1 -3,0 -5,1 -5,2 -10,3 -10,5 0,2 0,1 2,2 1,0 1,0 3,1 7,6 0,6 13,1 1,0 2,-1 3,-1 6,-3 4,-1 7,-3l31 -13 16 -10c1,-1 2,-2 3,-2 3,0 2,3 2,7 2,11 2,10 2,23 0,10 -1,20 -2,30 0,5 1,11 -1,15l5 8c3,-1 12,1 14,2l7 -6c-1,-3 -2,-2 -2,-3 -1,-2 0,-1 0,-2l-1 -3c-2,-4 -1,-1 -2,-4 -1,-4 -2,-1 -2,-8 0,-4 0,-8 0,-12 0,-3 0,-7 0,-10 0,-3 -1,-6 -2,-10 0,-3 1,-8 0,-11 -1,-3 -2,-4 -2,-9 3,0 2,0 3,2 1,1 1,1 2,1l3 2c8,8 8,8 19,17 7,5 14,11 22,15 2,1 4,5 7,5 3,0 2,-2 5,-3 3,-1 5,0 6,-3 -2,-1 -4,-2 -5,-3 -2,-1 -3,-2 -5,-3l-24 -15c-1,-1 -2,-2 -4,-3 -1,-1 -2,-1 -2,-2l-25 -19c-2,-1 -3,-2 -4,-3 -3,-5 -3,-3 -2,-6 7,-3 15,0 27,-12 7,-8 9,-19 9,-30 0,-9 -4,-22 -10,-28 -4,-4 -6,-6 -12,-8 -8,-4 -6,-2 -14,-5l-2 -53c1,-4 2,-1 5,-3 1,-3 0,-7 0,-11 0,-4 1,-8 1,-11 -6,0 -8,1 -13,2 -4,1 -8,1 -13,1l-82 6c-4,1 -5,2 -12,2l-21 1c-4,0 -1,1 -5,2l-41 2c-5,1 -23,3 -28,1l0 -8c-7,0 -12,2 -18,2 -5,1 -13,1 -18,1 -1,6 3,5 0,10l-6 0 -5 12c4,1 8,0 11,0 5,0 4,1 4,11 1,4 1,6 2,11 0,16 2,26 2,44 0,7 1,16 1,23 1,7 0,16 1,23 0,8 1,16 1,23 0,16 0,31 0,47 1,47 2,92 1,140l-1 35c0,4 1,8 -1,11 -4,2 -22,-2 -28,-2z"/>
 </symbol>
 <symbol id="icon-5" viewBox="0 0 500 500">
  <path class="fil1" d="M386 167c-2,8 -4,14 -12,19 -3,2 -1,1 -5,2 -2,1 -3,2 -6,2 -9,1 -18,1 -25,-3 -9,-6 -12,-17 -12,-27 0,-4 1,-3 2,-6 1,-8 5,-14 11,-19 7,-6 14,-6 24,-5 6,0 15,5 18,11 1,1 1,2 1,3 4,7 5,15 4,23zm-36 -12c1,-3 2,-4 1,-7 -1,0 -3,-4 -4,-4 -1,0 -1,0 -2,1 0,0 -1,1 -1,1 -1,1 -2,3 -1,5 0,3 -1,-1 0,1 2,3 5,3 7,3zm17 0c1,-1 1,-2 2,-3 0,-3 -3,-7 -6,-8 -5,3 -6,11 4,11zm-216 -83c4,-1 40,-3 46,-3 0,4 -1,4 -2,6l-8 12c0,1 0,1 -1,2l-32 49c-1,3 -1,3 -3,4 -1,-1 -1,-2 -1,-2l1 -68zm-55 368l-28 -1c1,5 3,3 7,8 3,6 0,9 0,12 8,1 102,0 120,0 4,0 14,1 17,0 1,-5 -2,-4 1,-9 3,-5 5,-6 5,-8 -14,-1 -64,5 -75,1 -4,-10 5,-225 5,-249l1 -28c0,-4 -1,-6 2,-8 -1,-2 -1,-1 0,-3l27 -33c4,-5 10,-13 12,-15 5,-4 15,-17 19,-19 3,-2 0,1 4,-3 2,-3 14,-11 17,-13 7,-3 7,-2 10,-4 1,-1 0,-2 3,-2 6,-1 29,-1 36,-1 12,-1 24,-2 35,-2 9,0 33,-1 36,0 3,1 2,9 2,13 0,7 0,30 0,36 0,1 0,2 -1,3 -1,6 -3,2 -14,8 -6,4 -15,13 -17,19l-3 9c-1,4 -1,13 -1,18 1,4 3,11 5,14 1,2 2,3 4,5 8,13 21,12 24,14 0,4 -3,4 -7,6l-10 5c-1,1 -1,1 -2,1 -8,3 -14,6 -23,9l-15 6c-3,1 -3,1 -6,2 -2,1 -3,0 -5,1 -5,2 -10,3 -10,5 0,2 0,1 2,2 1,0 1,0 3,1 7,6 0,6 13,1 1,0 2,-1 3,-1 6,-3 4,-1 7,-3l31 -13 16 -10c1,-1 2,-2 3,-2 3,0 2,3 2,7 2,11 2,10 2,23 0,10 -1,20 -2,30 0,5 1,11 -1,15 0,0 -1,1 -1,2l-5 8c-1,2 -2,3 -4,4 -3,4 -5,9 -10,14 -1,2 -3,4 -5,6 -3,3 -6,6 -9,10 -1,1 0,0 -1,1 -2,3 -3,5 -6,6 1,4 -14,12 -13,18 1,3 2,1 3,5 1,4 0,4 3,7 1,-1 5,-6 7,-8l19 -24c1,-1 0,-1 1,-1 2,-5 7,-10 10,-15l7 -10c1,-1 2,-3 3,-5 0,-1 1,-1 1,-2 2,-4 1,-4 5,-8 3,-1 12,1 14,2l7 -6c-1,-3 -2,-2 -2,-3 -1,-2 0,-1 0,-2l-1 -3c-2,-4 -1,-1 -2,-4 -1,-4 -2,-1 -2,-8 0,-4 0,-8 0,-12 0,-3 0,-7 0,-10 0,-3 -1,-6 -2,-10 0,-3 1,-8 0,-11 -1,-3 -2,-4 -2,-9 3,0 2,0 3,2 1,1 1,1 2,1l3 2c8,8 8,8 19,17 7,5 14,11 22,15 2,1 4,5 7,5 3,0 2,-2 5,-3 3,-1 5,0 6,-3 -2,-1 -4,-2 -5,-3 -2,-1 -3,-2 -5,-3l-24 -15c-1,-1 -2,-2 -4,-3 -1,-1 -2,-1 -2,-2l-25 -19c-2,-1 -3,-2 -4,-3 -3,-5 -3,-3 -2,-6 7,-3 15,0 27,-12 7,-8 9,-19 9,-30 0,-9 -4,-22 -10,-28 -4,-4 -6,-6 -12,-8 -8,-4 -6,-2 -14,-5l-2 -53c1,-4 2,-1 5,-3 1,-3 0,-7 0,-11 0,-4 1,-8 1,-11 -6,0 -8,1 -13,2 -4,1 -8,1 -13,1l-82 6c-4,1 -5,2 -12,2l-21 1c-4,0 -1,1 -5,2l-41 2c-5,1 -23,3 -28,1l0 -8c-7,0 -12,2 -18,2 -5,1 -13,1 -18,1 -1,6 3,5 0,10l-6 0 -5 12c4,1 8,0 11,0 5,0 4,1 4,11 1,4 1,6 2,11 0,16 2,26 2,44 0,7 1,16 1,23 1,7 0,16 1,23 0,8 1,16 1,23 0,16 0,31 0,47 1,47 2,92 1,140l-1 35c0,4 1,8 -1,11 -4,2 -22,-2 -28,-2z"/>
 </symbol>
 <symbol id="icon-6" viewBox="0 0 500 500">
  <path class="fil1" d="M386 167c-2,8 -4,14 -12,19 -3,2 -1,1 -5,2 -2,1 -3,2 -6,2 -9,1 -18,1 -25,-3 -9,-6 -12,-17 -12,-27 0,-4 1,-3 2,-6 1,-8 5,-14 11,-19 7,-6 14,-6 24,-5 6,0 15,5 18,11 1,1 1,2 1,3 4,7 5,15 4,23zm-18 -15l-5 7 -3 -2 6 -7 -6 -3 3 -3 4 4 4 -3 2 1 -3 4 3 5 -2 2 -3 -5zm-25 0l5 -8 3 2 -6 7 6 3 -3 3 -4 -4 -4 3 -2 -1 3 -4 -3 -5 2 -2 3 6zm-192 -80c4,-1 40,-3 46,-3 0,4 -1,4 -2,6l-8 12c0,1 0,1 -1,2l-32 49c-1,3 -1,3 -3,4 -1,-1 -1,-2 -1,-2l1 -68zm-55 368l-28 -1c1,5 3,3 7,8 3,6 0,9 0,12 8,1 102,0 120,0 4,0 14,1 17,0 1,-5 -2,-4 1,-9 3,-5 5,-6 5,-8 -14,-1 -64,5 -75,1 -4,-10 5,-225 5,-249l1 -28c0,-4 -1,-6 2,-8 -1,-2 -1,-1 0,-3l27 -33c4,-5 10,-13 12,-15 5,-4 15,-17 19,-19 3,-2 0,1 4,-3 2,-3 14,-11 17,-13 7,-3 7,-2 10,-4 1,-1 0,-2 3,-2 6,-1 29,-1 36,-1 12,-1 24,-2 35,-2 9,0 33,-1 36,0 3,1 2,9 2,13 0,7 0,30 0,36 0,1 0,2 -1,3 -1,6 -3,2 -14,8 -6,4 -15,13 -17,19l-3 9c-1,4 -1,13 -1,18 1,3 3,11 5,14 1,2 2,3 4,5 8,13 21,12 24,14 0,4 -3,4 -7,6l-10 5c-1,1 -1,1 -2,1 -8,3 -14,6 -23,9l-15 6c-3,1 -3,1 -6,2 -2,1 -3,0 -5,1 -5,2 -10,3 -10,5 0,2 0,1 2,2 1,0 1,0 3,1 7,6 0,6 13,1 1,0 2,-1 3,-1 6,-3 4,-1 7,-3l31 -13 16 -10c1,-1 2,-2 3,-2 3,0 2,3 2,7 2,11 2,10 2,23 0,10 -1,20 -2,30 0,5 1,11 -1,15 0,0 -1,1 -1,2l-5 8c-1,2 -2,3 -4,4 -3,4 -5,9 -10,14 -1,2 -3,4 -5,6 -3,3 -6,6 -9,10 -1,1 0,0 -1,1 -2,3 -3,5 -6,6 1,4 -14,12 -13,18 1,3 2,1 3,5 1,4 0,4 3,7 1,-1 5,-6 7,-8l19 -24c1,-1 0,-1 1,-1 2,-5 7,-10 10,-15l7 -10c1,-1 2,-3 3,-5 0,-1 1,-1 1,-2 2,-4 1,-4 5,-8 3,-1 12,1 14,2 1,2 3,10 4,13 3,5 4,9 6,14l2 4c2,5 2,2 2,6 1,1 15,27 15,30 2,1 2,1 3,4 2,4 1,5 4,4 2,0 -1,-2 6,-8 4,-4 2,-3 -2,-10 -3,-2 -6,-10 -8,-14 -2,-2 -6,-8 -7,-11l-4 -8c-1,0 -1,-1 -1,-1l-6 -13c-2,-4 -4,-7 -4,-9 -1,-2 -1,-2 -1,-4 -2,0 -2,-1 -2,-3 -1,-3 -2,-2 -2,-3 -1,-2 0,-1 0,-2l-1 -3c-2,-4 -1,-1 -2,-4 -1,-4 -2,-1 -2,-8 0,-4 0,-8 0,-12 0,-3 0,-7 0,-10 0,-3 -1,-6 -2,-10 0,-3 1,-8 0,-11 -1,-3 -2,-4 -2,-9 3,0 2,0 3,2 1,1 1,1 2,1l3 2c8,8 8,8 19,17 7,5 14,11 22,15 2,1 4,5 7,5 3,0 2,-2 5,-3 3,-1 5,0 6,-3 -2,-1 -4,-2 -5,-3 -2,-1 -3,-2 -5,-3l-24 -15c-1,-1 -2,-2 -4,-3 -1,-1 -2,-1 -2,-2l-25 -19c-2,-1 -3,-2 -4,-3 -3,-5 -3,-3 -2,-6 7,-3 15,0 27,-12 7,-8 9,-19 9,-30 0,-9 -4,-22 -10,-28 -4,-4 -6,-6 -12,-8 -8,-4 -6,-2 -14,-5l-2 -53c1,-4 2,-1 5,-3 1,-3 0,-7 0,-11 0,-4 1,-8 1,-11 -6,0 -8,1 -13,2 -4,1 -8,1 -13,1l-82 6c-4,1 -5,2 -12,2l-21 1c-4,0 -1,1 -5,2l-41 2c-5,1 -23,3 -28,1l0 -8c-7,0 -12,2 -18,2 -5,1 -13,1 -18,1 -1,6 3,5 0,10l-6 0 -5 12c4,1 8,0 11,0 5,0 4,1 4,11 1,4 1,6 2,11 0,16 2,26 2,44 0,7 1,16 1,23 1,7 0,16 1,23 0,8 1,16 1,23 0,16 0,31 0,47 1,47 2,92 1,140l-1 35c0,4 1,8 -1,11 -4,2 -22,-2 -28,-2z"/>
 </symbol>
</svg>
